<svg width="258" height="249" viewBox="0 0 258 249" fill="none" xmlns="http://www.w3.org/2000/svg">
<path d="M122.694 4.08517C125.239 -1.19626 132.761 -1.19626 135.306 4.08517L169.358 74.746C170.373 76.8511 172.371 78.3112 174.685 78.6382L251.837 89.5429C257.594 90.3567 259.907 97.429 255.742 101.487L199.576 156.221C197.919 157.836 197.167 160.164 197.566 162.442L211.153 240.006C212.161 245.763 206.088 250.148 200.941 247.378L132.317 210.453C130.246 209.338 127.754 209.338 125.683 210.453L57.0592 247.378C51.9125 250.148 45.8389 245.763 46.8473 240.006L60.4339 162.442C60.833 160.164 60.0809 157.836 58.4243 156.221L2.25762 101.487C-1.90689 97.4291 0.405704 90.3567 6.16335 89.5429L83.3152 78.6382C85.629 78.3112 87.627 76.8511 88.6415 74.746L122.694 4.08517Z" fill="url(#paint0_linear_5_311)"/>
<defs>
<linearGradient id="paint0_linear_5_311" x1="129" y1="-234" x2="129" y2="263.5" gradientUnits="userSpaceOnUse">
<stop stop-color="#AFAFAF"/>
<stop offset="1" stop-color="#AFAFAF" stop-opacity="0"/>
</linearGradient>
</defs>
</svg>
